# xmcd CD database file
#
# Track frame offsets:
#	150
#	12143
#	26013
#	38860
#	51483
#	62675
#	75820
#	86708
#	98035
#	108778
#	117728
#	128463
#
# Disc length: 1862 seconds
#
# Revision: 2
# Processed by: cddbd v1.4PL0 Copyright (c) Steve Scherf et al.
# Submitted via: CDex 1.40Beta9
#
DISCID=8d07440c
DTITLE=Patsy Cline - Today, Tomorrow, and Forever: The Patsy Cline Collection (Disk 2)
DYEAR=1900
DGENRE=Country
TTITLE0=Today, Tomorrow And Forever
TTITLE1=A Church, A Courtroom And Then Goodbye
TTITLE2=Yes, I Understand
TTITLE3=Fingerprints
TTITLE4=I Can't Forget You
TTITLE5=If I Could See The World Through The Eyes Of A Child
TTITLE6=I Cried All The Way To The Alter
TTITLE7=I'm Hungry, Hungry For Your Love
TTITLE8=I Don't Wanna
TTITLE9=Try Again
TTITLE10=I Can See An Angel
TTITLE11=Lonely Street
EXTD=ID3G: 2
EXTT0=
EXTT1=
EXTT2=
EXTT3=
EXTT4=
EXTT5=
EXTT6=
EXTT7=
EXTT8=
EXTT9=
EXTT10=
EXTT11=Cline, Patsy 
PLAYORDER=
